PathFileType	4	(X/Y/Z)	/Users/itak/Documents/Research/Walk-IL/dataset/trc/00318_00011.trc
DataRate	CameraRate	NumFrames	NumMarkers	Units	OrigDataRate	OrigDataStartFrame	OrigNumFrames
100.000000	100.000000	4	53	mm	100.000000	203	542
Frame#	Time	RPSI			LPSI			L3			STRN			T10			C7			CLAV			RBAK			LBAK			LSHO			LUPA			LAEL			LAOL			LWTS			LWPS			LFRA			LHPS			LHTS			RSHO			RUPA			RAEL			RAOL			RWTS			RWPS			RFRA			RIFD			RHTS			RHPS			RBHD			LFHD			RFHD			LBHD			LHIP			RHIP			RASI			LASI			LKNE			LTHI			LANK			LTIP			LTOE			LMT1			LMT5			LHEE			RKNE			RTHI			RANK			RTIP			RTOE			RMT1			RMT5			RHEE			LIFD			
		X1	Y1	Z1	X2	Y2	Z2	X3	Y3	Z3	X4	Y4	Z4	X5	Y5	Z5	X6	Y6	Z6	X7	Y7	Z7	X8	Y8	Z8	X9	Y9	Z9	X10	Y10	Z10	X11	Y11	Z11	X12	Y12	Z12	X13	Y13	Z13	X14	Y14	Z14	X15	Y15	Z15	X16	Y16	Z16	X17	Y17	Z17	X18	Y18	Z18	X19	Y19	Z19	X20	Y20	Z20	X21	Y21	Z21	X22	Y22	Z22	X23	Y23	Z23	X24	Y24	Z24	X25	Y25	Z25	X26	Y26	Z26	X27	Y27	Z27	X28	Y28	Z28	X29	Y29	Z29	X30	Y30	Z30	X31	Y31	Z31	X32	Y32	Z32	X33	Y33	Z33	X34	Y34	Z34	X35	Y35	Z35	X36	Y36	Z36	X37	Y37	Z37	X38	Y38	Z38	X39	Y39	Z39	X40	Y40	Z40	X41	Y41	Z41	X42	Y42	Z42	X43	Y43	Z43	X44	Y44	Z44	X45	Y45	Z45	X46	Y46	Z46	X47	Y47	Z47	X48	Y48	Z48	X49	Y49	Z49	X50	Y50	Z50	X51	Y51	Z51	X52	Y52	Z52	X53	Y53	Z53	

204	2.03	-1349.741088867188	961.1980590820312	70.77646636962891	-1349.447631835938	961.8486938476562	-59.48851013183594	-1356.183837890625	1029.7236328125	14.58635330200195	-1104.062377929688	1189.81884765625	-9.189521789550781	-1354.721923828125	1147.997314453125	18.85152244567871	-1294.259033203125	1391.459228515625	-7.111606121063232	-1142.291625976562	1315.021240234375	-13.22593021392822	-1345.40234375	1258.540771484375	71.206787109375	-1315.857543945312	1353.098266601562	-106.0043258666992	-1233.681762695312	1356.12158203125	-168.6736907958984	-1278.138549804688	1241.30615234375	-231.2821960449219	-1300.4658203125	1038.201049804688	-238.9871063232422	-1356.3359375	1036.793090820312	-175.5673828125	-1246.138549804688	781.3353271484375	-205.3435211181641	-1296.489013671875	777.6051025390625	-252.8636322021484	-1305.966064453125	932.731689453125	-245.7160339355469	-1311.890014648438	708.6401977539062	-243.7678985595703	-1252.27392578125	702.2235717773438	-219.7501525878906	-1220.199096679688	1375.835205078125	149.7480316162109	-1227.09765625	1314.8544921875	219.0334167480469	-1212.977416992188	1050.096313476562	275.1981201171875	-1266.536254882812	1034.60107421875	197.7831115722656	-1095.108520507812	826.2155151367188	231.4501800537109	-1125.900634765625	811.5733032226562	299.9898681640625	-1184.677856445312	983.7207641601562	284.7572021484375	-1070.222290039062	653.8084716796875	251.4053344726562	-1061.394287109375	726.8504028320312	248.2980651855469	-1107.907836914062	728.9537353515625	298.9684753417969	-1255.762573242188	1580.162109375	62.13802719116211	-1093.58984375	1602.626220703125	-68.32953643798828	-1097.0634765625	1605.7939453125	32.49510955810547	-1276.754760742188	1567.83935546875	-81.33496856689453	-1260.705200195312	908.586181640625	-157.2932281494141	-1280.064086914062	897.0249633789062	180.4560089111328	-1170.917724609375	921.149658203125	146.3066101074219	-1141.873168945312	931.7236938476562	-90.93790435791016	-1027.395263671875	493.3715209960938	-138.2953033447266	-1090.3857421875	618.5167236328125	-158.8597259521484	-992.73486328125	59.58724975585938	-125.3531494140625	-1005.356079101562	270.2726135253906	-147.2950897216797	-791.3896484375	109.6177825927734	-85.64981079101562	-849.6614990234375	82.17250823974609	-37.45852279663086	-872.296630859375	82.93574523925781	-149.4843444824219	-1018.796569824219	52.45399856567383	-54.73857116699219	-1311.186767578125	436.7979736328125	129.9825439453125	-1235.195068359375	684.6640014648438	172.1412048339844	-1472.975463867188	53.58281707763672	64.39537811279297	-1332.258178710938	316.7081909179688	104.0408325195312	-1280.216186523438	48.83552932739258	16.58342361450195	-1334.19873046875	41.99774551391602	-26.22016143798828	-1371.52587890625	39.70325088500977	85.39351654052734	-1523.0654296875	57.12533950805664	15.53230381011963	-1272.4931640625	619.6754760742188	-198.3419799804688	
205	2.04	-1343.988159179688	960.0750732421875	70.07395172119141	-1343.075317382812	960.5484619140625	-60.17119598388672	-1349.856201171875	1028.140869140625	14.08066940307617	-1098.020141601562	1188.290771484375	-8.653537750244141	-1348.83740234375	1146.5185546875	18.54816246032715	-1288.14501953125	1389.956176757812	-6.812726974487305	-1136.245239257812	1313.55615234375	-12.65105533599854	-1339.59912109375	1256.93994140625	71.17069244384766	-1309.45263671875	1351.73974609375	-105.7266616821289	-1227.199584960938	1354.828491210938	-168.2558898925781	-1272.348022460938	1240.42724609375	-231.0171661376953	-1296.516235351562	1037.528930664062	-238.6714019775391	-1352.39501953125	1036.6796875	-175.2257537841797	-1244.76220703125	780.098388671875	-204.7242584228516	-1295.098876953125	776.84423828125	-252.4141845703125	-1303.008666992188	932.1041259765625	-245.3827362060547	-1311.206787109375	708.05615234375	-243.3092193603516	-1251.773071289062	700.98486328125	-219.0174255371094	-1214.6181640625	1374.102661132812	150.2510223388672	-1221.480102539062	1313.046508789062	219.45458984375	-1205.5830078125	1048.479736328125	275.7842712402344	-1258.957275390625	1032.4072265625	198.3185882568359	-1085.532958984375	825.7846069335938	232.0478973388672	-1116.203491210938	810.69775390625	300.4852294921875	-1176.681884765625	982.3342895507812	285.4279479980469	-1058.75927734375	653.6720581054688	251.9303741455078	-1050.670166015625	726.7437133789062	248.8524780273438	-1097.294555664062	728.30078125	299.4226989746094	-1249.516235351562	1578.622924804688	62.75309371948242	-1087.20751953125	1601.073364257812	-67.72704315185547	-1090.803588867188	1604.2509765625	33.14874267578125	-1270.515869140625	1566.41259765625	-80.81624603271484	-1254.062744140625	906.946533203125	-157.4267272949219	-1275.018798828125	895.7822265625	180.111572265625	-1165.61279296875	919.580322265625	146.371826171875	-1135.390869140625	929.9385375976562	-90.73928833007812	-1022.986938476562	490.3633728027344	-137.3172912597656	-1086.118286132812	615.3394165039062	-158.2301177978516	-974.2428588867188	58.69024658203125	-124.8108215332031	-994.1512451171875	269.023681640625	-146.5347137451172	-774.848876953125	115.1025543212891	-83.27944946289062	-832.7218017578125	85.85856628417969	-35.6942024230957	-854.2559814453125	85.77387237548828	-147.8362426757812	-1000.750793457031	50.76538848876953	-54.4365348815918	-1308.17822265625	435.8518981933594	130.3577117919922	-1231.125	683.38720703125	172.2474212646484	-1472.892333984375	53.81960678100586	64.54263305664062	-1330.113159179688	315.9055786132812	104.2550582885742	-1280.263549804688	48.78076934814453	16.52953147888184	-1334.209716796875	41.95516967773438	-26.27102088928223	-1371.511840820312	39.62627410888672	85.38241577148438	-1523.031372070312	57.69855880737305	15.71989440917969	-1272.639282226562	618.7098999023438	-197.7037811279297	
206	2.05	-1338.081909179688	958.8956298828125	69.2901611328125	-1336.5087890625	959.1663208007812	-60.92656707763672	-1343.337036132812	1026.461303710938	13.47578716278076	-1091.799682617188	1186.724731445312	-8.125278472900391	-1342.793823242188	1144.949829101562	18.11982727050781	-1281.907836914062	1388.38232421875	-6.593533039093018	-1130.090698242188	1312.026611328125	-12.08871364593506	-1333.678955078125	1255.247192382812	71.03152465820312	-1302.891845703125	1350.303100585938	-105.5318756103516	-1220.538696289062	1353.471801757812	-167.8962097167969	-1266.351440429688	1239.486450195312	-230.8156433105469	-1292.339965820312	1036.80029296875	-238.4253845214844	-1348.224853515625	1036.50244140625	-174.9582672119141	-1243.151489257812	778.8187255859375	-204.1355895996094	-1293.446411132812	776.0531616210938	-252.0137176513672	-1299.809204101562	931.429931640625	-245.1102905273438	-1310.266967773438	707.44775390625	-242.9064636230469	-1251.096801757812	699.70068359375	-218.2780456542969	-1208.971435546875	1372.314453125	150.6896514892578	-1215.814208984375	1311.145751953125	219.8167724609375	-1198.118530273438	1046.794921875	276.2700805664062	-1251.29833984375	1030.147094726562	198.7356414794922	-1075.840942382812	825.333740234375	232.5785522460938	-1106.428466796875	809.7929077148438	300.8978271484375	-1168.608520507812	980.8780517578125	285.9980773925781	-1047.214477539062	653.5300903320312	252.3960723876953	-1039.872680664062	726.6154174804688	249.3137817382812	-1086.585327148438	727.6166381835938	299.7903137207031	-1243.147583007812	1577.025146484375	63.32128524780273	-1080.675659179688	1599.469116210938	-67.14139556884766	-1084.42822265625	1602.647583007812	33.79549789428711	-1264.122314453125	1564.941772460938	-80.35198974609375	-1247.235107421875	905.2387084960938	-157.595458984375	-1269.801391601562	894.4894409179688	179.7006530761719	-1160.082641601562	918.0066528320312	146.4030914306641	-1128.71826171875	928.0856323242188	-90.57724761962891	-1018.367980957031	487.4235534667969	-136.4395751953125	-1081.6015625	612.1199340820312	-157.6378936767578	-956.6221923828125	58.09103012084961	-124.0756225585938	-983.3032836914062	267.9095153808594	-145.7337493896484	-759.1729736328125	120.4045333862305	-81.06415557861328	-816.5813598632812	89.52469635009766	-33.99716567993164	-837.1707153320312	88.61522674560547	-146.1989898681641	-983.4791259765625	49.46612548828125	-53.90302658081055	-1305.020385742188	434.8789367675781	130.6755065917969	-1226.886596679688	682.06982421875	172.3126983642578	-1472.785034179688	54.09671783447266	64.66009521484375	-1327.893676757812	315.1177062988281	104.468879699707	-1280.317138671875	48.69963073730469	16.44954109191895	-1334.215576171875	41.88633346557617	-26.34977912902832	-1371.499145507812	39.59366607666016	85.34799957275391	-1522.979614257812	58.36773681640625	15.89888286590576	-1272.5751953125	617.7357788085938	-197.1090393066406	
207	2.06	-1332.022216796875	957.6582641601562	68.42379760742188	-1329.755615234375	957.7125244140625	-61.75533676147461	-1336.633911132812	1024.70654296875	12.78459548950195	-1085.401000976562	1185.122680664062	-7.601422309875488	-1336.582397460938	1143.303588867188	17.57783889770508	-1275.537963867188	1386.750732421875	-6.451422691345215	-1123.815307617188	1310.436767578125	-11.53892993927002	-1327.63134765625	1253.482788085938	70.79511260986328	-1296.173095703125	1348.79931640625	-105.4201354980469	-1213.693115234375	1352.055786132812	-167.5921325683594	-1260.134765625	1238.483276367188	-230.6741943359375	-1287.919677734375	1036.015625	-238.2433776855469	-1343.81103515625	1036.260620117188	-174.759765625	-1241.286987304688	777.49169921875	-203.5894012451172	-1291.515625	775.2339477539062	-251.666748046875	-1296.350463867188	930.708740234375	-244.8960113525391	-1309.054443359375	706.81787109375	-242.5569000244141	-1250.240112304688	698.3875122070312	-217.5284576416016	-1203.240112304688	1370.482543945312	151.0628051757812	-1210.091064453125	1309.1640625	220.1177062988281	-1190.593383789062	1045.045288085938	276.6546325683594	-1243.580444335938	1027.848388671875	199.0296325683594	-1066.047485351562	824.8711547851562	233.0295867919922	-1096.602661132812	808.8728637695312	301.2286682128906	-1160.478149414062	979.3572998046875	286.4666442871094	-1035.606567382812	653.390380859375	252.8058776855469	-1029.037841796875	726.474853515625	249.6971435546875	-1075.80419921875	726.91455078125	300.0719909667969	-1236.662475585938	1575.385009765625	63.83351898193359	-1074.00146484375	1597.83056640625	-66.57040405273438	-1077.935424804688	1600.996948242188	34.43136978149414	-1257.564575195312	1563.427001953125	-79.93897247314453	-1240.237426757812	903.4716796875	-157.7875823974609	-1264.40087890625	893.1534423828125	179.2215728759766	-1154.342895507812	916.4186401367188	146.4140167236328	-1121.870849609375	926.1744995117188	-90.44066619873047	-1013.505493164062	484.587646484375	-135.6792602539062	-1076.7734375	608.9248046875	-157.1010894775391	-940.0184936523438	57.67161178588867	-123.0955123901367	-972.8673095703125	266.8766174316406	-144.8881378173828	-744.416748046875	125.3275833129883	-79.07785797119141	-801.2994384765625	93.02907562255859	-32.39096450805664	-821.1650390625	91.27241516113281	-144.5958251953125	-967.10400390625	48.48644638061523	-53.06801223754883	-1301.752075195312	433.9053955078125	130.9253387451172	-1222.480590820312	680.7193603515625	172.3348999023438	-1472.648193359375	54.41585159301758	64.74314117431641	-1325.618286132812	314.3595886230469	104.673225402832	-1280.3564453125	48.58374404907227	16.35678672790527	-1334.214965820312	41.79169845581055	-26.45429039001465	-1371.480834960938	39.60945892333984	85.29369354248047	-1522.900268554688	59.13540267944336	16.06087112426758	-1272.277587890625	616.7561645507812	-196.5643310546875	
